# xmcd
#
# Track frame offsets:
#	150
#	14163
#	29459
#	39151
#	54340
#	69517
#	81777
#	96068
#	109766
#	122743
#	135757
#	154847
#	165036
#	174455
#	184482
#	198806
#	209800
#	219855
#	239574
#	256939
#	266503
#	283577
#	302687
#	314892
#	325217
#	343413
#
# Disc length: 4778 seconds
#
# Revision: 1
# Processed by: cddbd v1.5.2PL0 Copyright (c) Steve Scherf et al.
# Submitted via: audiograbber 1.83.01
#
DISCID=7812a81a
DTITLE=Diverse - Country Western 1955 - 1980 CD2
DYEAR=1900
DGENRE=Country
TTITLE0=Johnna Cash - Orange blossom special
TTITLE1=Dawn - The a yellow ribbon around the old oak tree
TTITLE2=Sue Thompson - James hold the ladder steady
TTITLE3=Johnny Rivers - Rockin´pneumonia boogie woogie flu
TTITLE4=Joan Baez - The night the drove old dixid down
TTITLE5=Elvis Presley - In the getto
TTITLE6=Cat Stevens - Morning has brocken
TTITLE7=Chi Coltrane - Thunder and lightnig
TTITLE8=Gallery - I believe in music
TTITLE9=Johnny Darrell - The son of hickroy hollers tramp
TTITLE10=Nancy Sinatra and Lee Hazelwood - Summer wine
TTITLE11=Carl Perkins - Blue suade shoes
TTITLE12=Ray Shara - Linda lu
TTITLE13=Jimmy Gilmer - Bottle of wine
TTITLE14=John Denver - Take me home country road
TTITLE15=Marty Robbins - A wihte sport coat
TTITLE16=The Springfields - Silver threades and golden needles
TTITLE17=Neil Diamond - Soolaimon
TTITLE18=The Pop Tops - Mammy blue
TTITLE19=Ike Clanton - Sugar plum
TTITLE20=Mamas and Papas - Dancing in the street
TTITLE21=Kenny Rogers - She believes in me
TTITLE22=Charlie Rich - The most beautiful girl
TTITLE23=Dee Clark - Hey little girl
TTITLE24=Deep Purple - Kentucky woman
TTITLE25=Harry Nillson - Without you
EXTD=
EXTT0=
EXTT1=
EXTT2=
EXTT3=
EXTT4=
EXTT5=
EXTT6=
EXTT7=
EXTT8=
EXTT9=
EXTT10=
EXTT11=
EXTT12=
EXTT13=
EXTT14=
EXTT15=
EXTT16=
EXTT17=
EXTT18=
EXTT19=
EXTT20=
EXTT21=
EXTT22=
EXTT23=
EXTT24=
EXTT25=
PLAYORDER=
